<?xml version="1.0" encoding="UTF-8" standalone="no"?>
<svg width="1024" height="1024" viewBox="0 0 1024 1024" fill="none" xmlns="http://www.w3.org/2000/svg">
  <defs>
    <!-- Gradients -->
    <linearGradient id="gradShield" x1="256" y1="128" x2="768" y2="896" gradientUnits="userSpaceOnUse">
      <stop offset="0%" stop-color="#3EF2D0"/>
      <stop offset="100%" stop-color="#15C59C"/>
    </linearGradient>
    <linearGradient id="gradBubble" x1="420" y1="420" x2="700" y2="720" gradientUnits="userSpaceOnUse">
      <stop offset="0%" stop-color="#54F0D5"/>
      <stop offset="100%" stop-color="#1BC0A0"/>
    </linearGradient>
    <filter id="softGlow" x="-20%" y="-20%" width="140%" height="140%">
      <feGaussianBlur in="SourceGraphic" stdDeviation="6" result="blur"/>
      <feMerge>
        <feMergeNode in="blur"/>
        <feMergeNode in="SourceGraphic"/>
      </feMerge>
    </filter>
  </defs>

  <!-- Shield outline (stroke only) -->
  <path d="
    M512 96
    C 720 96, 896 188, 896 320
    L 896 544
    C 896 744, 702 884, 512 960
    C 322 884, 128 744, 128 544
    L 128 320
    C 128 188, 304 96, 512 96
    Z"
    fill="none"
    stroke="url(#gradShield)"
    stroke-width="72"
    stroke-linejoin="round"
    filter="url(#softGlow)"/>

  <!-- Chat bubble -->
  <g filter="url(#softGlow)">
    <circle cx="560" cy="560" r="180" fill="url(#gradBubble)"/>
    <!-- Bubble tail -->
    <path d="M 430 650
             Q 464 610, 474 584
             Q 410 586, 380 600
             Q 398 636, 430 650 Z"
          fill="url(#gradBubble)"/>
  </g>

  <!-- Sparkle -->
  <g opacity="0.95" filter="url(#softGlow)">
    <path d="M460 400
             l 18 -36
             l 18 36
             l 36 18
             l -36 18
             l -18 36
             l -18 -36
             l -36 -18
             l 36 -18 Z"
          fill="#8FFAE6"/>
  </g>
</svg>
